# xmcd CD database file
#
# Track frame offsets:
#	150
#	16914
#	37232
#	54444
#	78674
#	105560
#	126860
#	146210
#	162317
#	182417
#	197755
#
# Disc length: 2870 seconds
#
# Revision: 0
# Processed by: cddbd v1.5.2PL0 Copyright (c) Steve Scherf et al.
# Submitted via: CDex 1.70beta2
#
DISCID=960b340b
DTITLE=Elliott Lawrencr - Cocktail Jazz
DYEAR=1900
DGENRE=Jazz
TTITLE0=My romance
TTITLE1=Cantaloupe Island
TTITLE2=Is This Love
TTITLE3=Stella By Starlight
TTITLE4=For the Love of You
TTITLE5=Satin Doll
TTITLE6=La Vein Rose
TTITLE7=Jamming
TTITLE8=My Funny valentine
TTITLE9=Fallen
TTITLE10=Freddie the Freeloader
EXTD=
EXTT0=
EXTT1=
EXTT2=
EXTT3=
EXTT4=
EXTT5=
EXTT6=
EXTT7=
EXTT8=
EXTT9=
EXTT10=
PLAYORDER=
